<svg xmlns="http://www.w3.org/2000/svg" xmlns:xlink="http://www.w3.org/1999/xlink" x="0px" y="0px" viewBox="0 0 500 266" xml:space="preserve"><g id="BACKGROUND" display="none">	<rect id="XMLID_303_" y="-49" display="inline" fill="#FFF9EE" width="500" height="500"></rect></g><g id="OBJECTS">	<g id="XMLID_308_">		<g id="XMLID_306_">			<path id="XMLID_316_" fill="#FFFFFF" d="M446.1,157.5c0,3.7-0.2,7.5-0.6,11.2c-4.8,44.9-42.7,78-86.6,78c-4.1,0-8.3-0.3-12.5-0.9    l-10.7-1.5c-33.4-4.8-67.3-6-101-3.6l-59.8,4.3c-61.5,4.4-117.7-34.9-134.6-94.2c-1.3-4.6-2-9.4-2-14.1    c0-12.8,4.8-25.2,13.6-34.8l1.9-2.1c3.9,8.5,12.5,14.4,22.5,14.4c13.7,0,24.8-11.1,24.8-24.8c0-10.7-6.7-19.7-16.2-23.2l4.2-4.5    c17.4-18.8,46.3-21.4,66.8-6l1.9,1.5c15.2,11.4,34.9,13.1,51.4,4.8c0.5-0.3,1-0.5,1.5-0.8c25.7-13,53.5-19.9,81.5-20.7    c-0.4,1.8-0.6,3.7-0.6,5.6c0,13.7,11.1,24.8,24.8,24.8s24.8-11.1,24.8-24.8c0-0.3,0-0.5,0-0.8c17.3,4,34.1,10.4,50.1,19.2    C425.4,83.4,446.1,119.2,446.1,157.5z"></path>			<circle id="XMLID_307_" fill="#FFFFFF" cx="187.2" cy="34.2" r="23.2"></circle>			<circle id="XMLID_309_" fill="#FFFFFF" cx="415" cy="46.7" r="12.5"></circle>			<circle id="XMLID_310_" fill="#FFFFFF" cx="459.5" cy="128" r="4.5"></circle>		</g>		<g id="XMLID_299_">			<ellipse id="XMLID_247_" fill="#F4EEE6" cx="250.3" cy="248.9" rx="190" ry="7.2"></ellipse>			<g id="XMLID_134_">				<path id="XMLID_270_" fill="#AFE1F5" d="M406.7,191.6V162H373l0.2,29.6H347l39-82.2h-34.8l-33.2,68.1l-8.4,17.3v24.6H373v30.4     h33.6v-30.4h18v-27.8H406.7z"></path>				<path id="XMLID_283_" opacity="0.32" fill="#AFE1F5" d="M328.7,219.4c0.7-7.6-1.6-13.1-2.1-14.2c-0.1,4.8-1,9.6-2.7,14.2h-14.3     v-24.6l8.4-17.3c2.4,3,4.9,7.1,5.9,10.8c0.2,0.7,0.5,1.3,0.7,2c0,0,0,0.1,0,0.1c0.4,1.2,0.7,2.5,1,3.7c0,0,0,0,0,0.1     c0,0.1,0,0.2,0.1,0.4c0.1,0.4,0.2,0.7,0.2,1.1c0.1,0.4,0.1,0.7,0.2,1.1c0,0.1,0,0.1,0,0.2c0,0,0,0.1,0,0.1     c0.1,0.4,0.1,0.9,0.2,1.3c0,0,0,0,0,0.1c0,0,0,0,0,0v0c0,0,7.1,7,7.2,21H328.7z"></path>			</g>			<path id="XMLID_260_" fill="#AFE1F5" d="M143.1,109.4l-39,82.2h26.2l-0.2-29.6h33.6v29.6h18v27.8h-18v30.4h-33.6v-30.4H66.6    v-24.6l41.6-85.4H143.1z"></path>			<path id="XMLID_100_" fill="#AFE1F5" d="M247,94.1c-39.2,0-60.6,27.8-60.6,78.3c0,16.3,2.2,30.2,6.6,41.6    c9.1,24,27.5,36.9,54.1,36.9c15,0,27.4-4.2,37-12.2c1.7-1.4,3.2-2.9,4.7-4.5c1.5-1.6,2.9-3.3,4.2-5.1c0.6-0.9,1.2-1.8,1.8-2.7    c8-12.7,12.4-30,12.7-51.6c0-0.8,0-1.5,0-2.3C307.4,121.8,285.8,94.1,247,94.1z M225.2,184.6c-0.2-3.8-0.3-7.9-0.3-12.3    c0-35.5,6.4-50.1,22.1-50.1c13.9,0,20.4,11.7,21.6,39.8c0.1,3.2,0.2,6.6,0.2,10.2c0,35.3-6.4,50-21.8,50    C233.3,222.4,226.7,211.1,225.2,184.6z"></path>			<g id="XMLID_124_">				<path id="XMLID_287_" fill="#AFE1F5" d="M292.9,229c-1.3,1.8-2.7,3.5-4.2,5.1c-11.9,1.8-28.6,7.1-29.8-3.4     c-0.1-0.6-0.1-1.2,0-1.8C259.8,224.3,281.2,229.6,292.9,229z"></path>				<path id="XMLID_275_" fill="#AFE1F5" d="M307.4,174.6c-0.3,21.6-4.6,39-12.7,51.6c-6.4,0.3-20.5-3.3-26.8-0.1     c-0.1,0.1-0.2,0.1-0.3,0.1c-0.3,0.1-0.5,0.2-0.8,0.3c0,0-0.1,0-0.1,0c0,0-0.1,0-0.1,0c-0.1,0-0.2,0-0.3,0.1     c-0.1,0-0.2,0-0.3,0.1c-0.1,0-0.2,0-0.2,0.1c-0.1,0-0.2,0-0.2,0.1c-0.1,0-0.3,0.1-0.4,0.1c0,0,0,0,0,0c-0.1,0-0.3,0.1-0.5,0.1     c0,0,0,0,0,0c-0.9,0.1-1.8,0.2-2.6,0.3c0,0,0,0,0,0c-0.2,0-0.4,0-0.7,0c0,0,0,0,0,0c-9.6,0.6-22.7,0.9-31.5-3.3     c-1.5,0-2.3,0-2.3,0c-0.1,0-0.2,0-0.3,0c0,0,0,0,0,0c-0.6,0-0.9,0-0.9,0c-0.1,0-0.2,0-0.3,0c-7.4,0-15.2-1.1-22.3-3.4     c-0.7-0.2-1.3-0.5-1.9-0.7c-0.2-0.1-0.5-0.2-0.7-0.3c-0.1,0-0.1,0-0.2-0.1c-0.6-0.2-1.1-0.5-1.7-0.7c-0.9-0.4-1.8-0.9-2.7-1.4     c0,0-0.1,0-0.1-0.1c-0.4-0.3-0.8-0.5-1.2-0.8c-0.1-0.1-0.2-0.2-0.3-0.2c0,0-0.1-0.1-0.1-0.1c-0.1-0.1-0.3-0.2-0.4-0.4     c-0.1-0.1-0.2-0.2-0.3-0.2c-0.3-0.2-0.5-0.5-0.7-0.8c0,0-0.1-0.1-0.1-0.1c-2.2-2.5,0.9-9.7,2.1-11.8c0-0.1,0.1-0.2,0.1-0.2     c-2.3-7.2-1-11.5-1-11.5c3.4,0.8,6.1,4.2,6.1,4.2c2.4-2.9,7.5-4.2,11.1-4.4c-0.1-5.5,1.2-6.6,1.2-6.6c9.3,3,2.2,7.9,12.3,0     c0.9,15.8,5.2,43.7,27.8,36.9c19.9-6,16.2-44.8,15.6-59.4C282.6,159,298.9,162,307.4,174.6C307.1,196.3,304,169.6,307.4,174.6z"></path>			</g>			<g id="XMLID_7_">				<path id="XMLID_286_" fill="#FFEDCA" d="M307.6,205.2c-0.4,0.9-0.9,1.8-1.4,2.5c-0.4,0.7-0.9,1.3-1.4,1.9     c-1.1,1.2-2.2,2.3-3.5,3.1c-9.7,6.7-24.8,4.4-30.7,5c-0.8,0.1-2.1,0.2-3.7,0.2c-0.3,0-0.7,0-1,0c-1.6,0.1-3.5,0.1-5.6,0.2     c-10.3,0.4-24.9,0.7-32.9,0.9c-3.4,0.1-5.6,0.1-5.6,0.1c-0.1,0-0.2,0-0.3,0c-0.1,0-0.2,0-0.3,0c-8.9-0.2-16.5-1.6-22.2-3.5     c-3.6-1.2-6.4-2.5-8.2-3.9c-0.6-0.5-1.2-0.9-1.5-1.4c-0.2-0.2-0.3-0.4-0.4-0.6c-0.1-0.1-0.1-0.2-0.1-0.2     c-2.2-4,2.2-11.2,2.4-11.6c0,0,0,0,0,0v0c0,0,0,0,0,0c-2.3-7.3-1-11.6-1-11.6c3.4,0.8,6.1,4.2,6.1,4.2c0.5-0.6,1.1-1.1,1.8-1.6     c0.6-0.4,1.2-0.7,1.8-1c0.7-0.3,1.4-0.6,2.1-0.8c1.2-0.4,2.4-0.6,3.3-0.8c1.2-0.2,2-0.3,2-0.3c-0.1-5.5,1.7-7.8,1.7-7.8     c2.4,0.8,4.5,6.4,5.4,6.4c0.7,0,1.8-2,10.2-8.1c0.6-0.4,1.2-0.9,1.9-1.3c1.6-1.1,3.5-2.4,5.6-3.8c0.3-0.2,0.6-0.4,0.9-0.6     c0.5-0.3,0.9-0.6,1.4-0.9c1.8-1.2,3.7-2.3,5.6-3.4c0.9-0.5,1.7-1,2.6-1.4c1.4-0.8,2.9-1.5,4.4-2.2c0.7-0.3,1.4-0.7,2.1-1     c1.3-0.6,2.6-1.1,3.9-1.6c1.8-0.7,3.5-1.3,5.3-1.9c1.9-0.6,3.9-1.1,5.9-1.5c0,0,0,0,0,0c0.1,0,0.3-0.1,0.4-0.1c3-0.6,6-0.9,9-1     c0.2,0,0.4,0,0.5,0c2.1,0,4.2,0.1,6.3,0.4c2.9,0.4,5.8,1,8.7,2.1c6.1,2.2,11,6.6,14.4,12c1.1,1.8,2.1,3.7,2.9,5.6     c0.3,0.8,0.6,1.6,0.9,2.4c1.3,3.7,2.1,7.5,2.4,11.3C310.2,195.5,309.5,201,307.6,205.2z"></path>				<path id="XMLID_264_" fill="#FFD67B" d="M306.2,207.7c-0.4,0.7-0.9,1.3-1.4,1.9c-9,10.5-27.6,7.5-34.2,8.1     c-0.8,0.1-2.1,0.2-3.7,0.2c-0.3,0-0.7,0-1,0c-1.6,0.1-3.5,0.1-5.6,0.2c-10.3,0.4-24.9,0.7-32.9,0.9c-3.4,0.1-5.6,0.1-5.6,0.1     c-0.1,0-0.2,0-0.3,0c-0.1,0-0.2,0-0.3,0c-8.9-0.2-16.5-1.6-22.2-3.5c-3.6-1.2-6.4-2.5-8.2-3.9c-0.6-0.5-1.2-0.9-1.5-1.4     c-0.2-0.2-0.3-0.4-0.4-0.6c-1.2-4.1,2.4-12.1,2.4-12.1c-2.3-7.3-0.6-10.1-0.6-10.1c3.4,0.8,6.1,4.2,6.1,4.2     c0.5-0.6,1.1-1.1,1.8-1.6c0.6-0.4,1.2-0.7,1.8-1c0.7-0.3,1.4-0.6,2.1-0.8c1.2-0.4,2.4-0.6,3.3-0.8c1.2-0.2,2-0.3,2-0.3     c-0.1-5.5,1.5-7.7,1.5-7.7c2.4,0.8,4.7,6.4,5.6,6.4c0.7,0,1.8-2,10.2-8.1c0.6-0.4,1.2-0.9,1.9-1.3c1.6-1.1,3.5-2.4,5.6-3.8     c0.3-0.2,0.6-0.4,0.9-0.6c0.5-0.3,0.9-0.6,1.4-0.9c1.8-1.2,3.7-2.3,5.6-3.4c0.9-0.5,1.7-1,2.6-1.4c2.1-1.1,4.3-2.2,6.5-3.2     c1.3-0.6,2.6-1.1,3.9-1.6c1.8-0.7,3.5-1.3,5.3-1.9c2.1-0.6,4.2-1.2,6.3-1.6c3.2-0.6,6.3-1,9.5-1c2.1,0,4.2,0.1,6.3,0.4     c2.9,0.4,5.8,1,8.7,2.1c6.1,2.2,11,6.6,14.4,12c0.9,1.4,1.7,2.9,2.4,4.5C311,187.2,311,200.3,306.2,207.7z"></path>				<path id="XMLID_250_" fill="#F3BE65" d="M316.7,209.6c0,14.1-13.5,19.9-31.6,23.3c-15.8,3-23.2,0.8-24.1-3.2     c-0.1-0.6-0.1-1.2,0-1.8c1-5.2,20-2.6,32-4c12-1.4,18.1-5.7,18.9-14.3c0.8-8.6-2.2-14.4-2.2-14.4l-0.1-5.9l0-0.6     C309.6,188.5,316.7,195.5,316.7,209.6z"></path>				<path id="XMLID_271_" fill="#FFD67B" d="M314,206.4c0,14.1-13.7,20.7-31.8,24.1c-10.6,2-20.4,2-21.2-0.9c-0.1-0.6-0.1-1.2,0-1.8     c1-5.2,20-2.6,32-4c12-1.4,18.1-5.7,18.9-14.3c0.8-8.6-2.2-14.4-2.2-14.4l-0.1-5.9c0.2,0.3,0.4,0.7,0.6,1.1     C312.1,193.7,314,199.1,314,206.4z"></path>				<path id="XMLID_263_" fill="#FFD67B" d="M315,209.6c0,14.1-13.4,17.5-31.5,20.9c-10.6,2-18.5,0.9-22.1-0.7c0-0.4,0-0.8,0.1-1.2     c1-5.2,20-2.6,32-4c12-1.4,18.1-5.7,18.9-14.3c0.8-8.6-2.6-15.6-2.6-15.6l-0.2-6.2C314.1,193.1,315,202.1,315,209.6z"></path>				<g id="XMLID_20_">					<path id="XMLID_254_" fill="#F3BE65" d="M231.3,186.4c-2-5-4.7-7.9-6.8-9.5c0.6-0.4,1.2-0.9,1.9-1.3      C230.3,180.1,231.3,186.4,231.3,186.4z"></path>					<path id="XMLID_252_" fill="#F3BE65" d="M239.9,182.9c-2.3-5.8-5.3-9.2-7.8-11.2c0.3-0.2,0.6-0.4,0.9-0.6      c0.5-0.3,0.9-0.6,1.4-0.9C238.7,175.7,239.9,182.9,239.9,182.9z"></path>					<path id="XMLID_251_" fill="#F3BE65" d="M248.6,178.7c-2.6-6.5-6.1-10-8.7-11.8c0.9-0.5,1.7-1,2.6-1.4      C247.3,170.9,248.6,178.7,248.6,178.7z"></path>					<path id="XMLID_249_" fill="#F3BE65" d="M261,177.7c-3.6-9.1-8.7-13.5-12-15.5c1.3-0.6,2.6-1.1,3.9-1.6      C259.2,167.4,260.9,177.4,261,177.7z"></path>					<path id="XMLID_248_" fill="#F3BE65" d="M275.4,179.9c-5.3-13.4-13-18.9-17.2-21.1c2.1-0.6,4.2-1.2,6.3-1.6      C273,166,275.3,179.4,275.4,179.9z"></path>					<path id="XMLID_242_" fill="#F3BE65" d="M285.7,179.1c-2.4-12.7-7.8-19.6-11.7-23c2.1,0,4.2,0.1,6.3,0.4      C286,166.7,285.7,179.1,285.7,179.1z"></path>				</g>				<path id="XMLID_253_" fill="#F3BE65" d="M221.2,219.2c-16.4-0.4-28.6-4.9-31.9-8.8l1.8-1.7c0,0,0,0.9,2.4,1.4     c2.3,0.5,0-4.7,1.4-6.5c1.3-1.9,4.3-3.2,7.1-0.6c2.8,2.6,3.3,13,18.7,12L221.2,219.2z"></path>				<path id="XMLID_241_" fill="#F3BE65" d="M306.2,207.7c-0.4,0.7-0.9,1.3-1.4,1.9c-9,10.5-27.6,7.5-34.2,8.1     c-0.8,0.1-2.1,0.2-3.7,0.2c-0.3,0-0.7,0-1,0c-1.6,0.1-3.5,0.1-5.6,0.2c-10.3,0.4-24.9,0.7-32.9,0.9c-3.4,0.1-5.6,0.1-5.6,0.1     c-0.1,0-0.2,0-0.3,0c-0.1,0-0.2,0-0.3,0c-8.9-0.2-16.5-1.6-22.2-3.5c1.9,0.2,12.6,1.1,20.4,0.6c8.6-0.6,29.4-19.4,45-16.2     c15.6,3.2,49-8,39.4-28.7c-0.1-0.3-0.3-0.6-0.4-0.9C310.9,182.4,311.9,199,306.2,207.7z"></path>				<path id="XMLID_243_" fill="#F3BE65" d="M261.5,218.3c-14.7,0.5-38.4,1-38.4,1c-0.1,0-0.2,0-0.3,0c-3.8-2.9-3.7-9,0.7-11.7     c2.7-1.6,6.3-3,10.7-2.6c10,0.8,11.7,9.1,20.4,10.9C258.3,216.6,260.3,217.5,261.5,218.3z"></path>				<path id="XMLID_245_" fill="#F3BE65" d="M265.8,218c-1.6,0.1-3.5,0.1-5.6,0.2c-10.3,0.4-24.9,0.7-32.9,0.9     c-4.7-2.6-4.8-9.4-0.1-12.2c2.7-1.6,6.3-3,10.7-2.6c10,0.8,11.7,9.1,20.4,10.9C262.8,216.1,264.8,217.1,265.8,218z"></path>				<path id="XMLID_269_" fill="#FFEDCA" d="M264.2,220.4c0,0.3-0.2,0.6-0.7,0.9c-1.2,0.6-3.8,1.1-7.2,1.2c-2.3,0.1-4.9,0.1-7.7-0.1     c-6-0.3-16.6-0.1-23.2-3.3c-3.8-1.8-4.9-6.1-3.3-9.5c0.6-1.2,1.5-2.2,2.7-3c2.7-1.6,6.3-3,10.7-2.6c10,0.8,11.7,9.1,20.4,10.9     c0.3,0.1,0.5,0.1,0.8,0.2C264.5,216.9,264.1,218.9,264.2,220.4z"></path>				<path id="XMLID_267_" fill="#FFD67B" d="M263.4,221.3c-0.1,0-0.2,0.1-0.2,0.1c-0.1,0-0.2,0.1-0.3,0.1c-0.1,0.1-0.3,0.1-0.5,0.2     c-0.1,0-0.2,0.1-0.4,0.1c-0.3,0.1-0.5,0.1-0.9,0.2c-0.1,0-0.2,0-0.3,0.1c-0.7,0.1-1.5,0.2-2.4,0.3c-0.3,0-0.7,0.1-1,0.1     c-0.2,0-0.4,0-0.7,0c-0.2,0-0.4,0-0.6,0c-2.3,0.1-4.9,0.1-7.7-0.1c-6-0.3-16.6-0.1-23.2-3.3c-3.8-1.8-4.9-6.1-3.3-9.5     c0.5-0.7,1.2-1.3,2-1.8c2.7-1.6,6.3-3,10.7-2.6c10,0.8,11.7,9.1,20.4,10.9c0.3,0.1,0.5,0.1,0.8,0.2c0.4,0.1,0.9,0.2,1.2,0.3     C263.3,218.2,263.4,219.9,263.4,221.3z"></path>				<path id="XMLID_244_" fill="#F3BE65" d="M306.7,193.9c0,6.4-0.7,11.7-1.9,15.8c-9,10.5-27.6,7.5-34.2,8.1     c-0.8,0.1-2.1,0.2-3.7,0.2c0-0.8,0.3-1.7,0.7-2.3c1.1-2.1,12.7-2.5,12-4.1c-0.7-1.6-5.9-2.4-5.9-12.8c0-0.2,0-0.4,0-0.6     c0.3-7.9,6.5-14.4,14.4-15.2C295.5,182.2,306.7,182.9,306.7,193.9z"></path>				<path id="XMLID_305_" fill="#FFEDCA" d="M309.8,193.9c0,0.4,0,0.9,0,1.3c0,0.4,0,0.8,0,1.3c-0.6,12.5-5.6,20.3-9.8,23.1     c-0.4,0.3-0.8,0.5-1.2,0.7c-0.1,0-0.2,0.1-0.3,0.1c-0.2,0.1-0.3,0.1-0.5,0.2c-0.2,0-0.3,0.1-0.5,0.1c0,0,0,0-0.1,0     c-1.3,0.3-2.8,0.5-4.3,0.6c0,0-0.1,0-0.1,0c-4.9,0.5-10.6,0.4-16.4,0.4c-1.6,0-2.8-0.2-3.7-0.4c-3.7-1.1-3.6-3.3-2.1-5.5     c1.5-2.2,12.7-2.5,12-4.1c-0.7-1.6-5.9-2.4-5.9-12.8c0-0.2,0-0.4,0-0.6c0.2-7.9,6.5-14.4,14.4-15.2c3.8-0.4,8.5-0.4,12.2,1.1h0     c1,0.4,1.9,0.9,2.7,1.5c0.2,0.2,0.4,0.4,0.6,0.5c0.2,0.2,0.3,0.3,0.5,0.5c0.2,0.2,0.3,0.3,0.5,0.5c0.1,0.2,0.3,0.3,0.4,0.5     c0,0,0,0.1,0.1,0.1c0.1,0.1,0.2,0.3,0.3,0.4c0.2,0.3,0.3,0.6,0.5,0.9c0.1,0.2,0.2,0.4,0.2,0.6c0,0,0,0,0,0.1     c0.1,0.2,0.2,0.5,0.2,0.7c0.1,0.3,0.1,0.5,0.2,0.8c0,0,0,0,0,0c0,0.2,0.1,0.3,0.1,0.5c0,0.2,0,0.3,0.1,0.5     C309.8,192.8,309.8,193.3,309.8,193.9z"></path>				<path id="XMLID_295_" fill="#FFD67B" d="M309.8,193.9c0,0.4,0,0.9,0,1.3c0,0.4,0,0.8,0,1.3c-0.6,12.5-5.6,20.3-9.8,23.1     c-0.4,0.3-0.8,0.5-1.2,0.7c-0.1,0-0.2,0.1-0.3,0.1c-0.2,0.1-0.3,0.1-0.5,0.2c-0.2,0-0.3,0.1-0.5,0.1c0,0,0,0-0.1,0     c-0.3,0.1,1,0,0.4,0.1c-1.4,0.2-3,0.4-4.7,0.5c0,0-0.1,0-0.1,0c-5.1,0.4-11.2,0.4-16.4,0.4c-1.6,0-2.8-0.2-3.7-0.4     c-2.6-1.2-2-3.7-1.2-5.2c1.1-2,12.7-2.5,12-4.1c-0.7-1.6-5.9-2.4-5.9-12.8c0-0.2,0-0.4,0-0.6c0.2-7.9,6.5-14.4,14.4-15.2     c3.5-0.3,7.7-0.4,11.3,0.8h0c1,0.4,1.9,0.9,2.7,1.5c0.2,0.2,0.4,0.4,0.6,0.5c0.2,0.2,0.3,0.3,0.5,0.5c0.2,0.2,0.3,0.3,0.5,0.5     c0.1,0.2,0.3,0.3,0.4,0.5c0,0,0,0.1,0.1,0.1c0.1,0.1,0.2,0.3,0.3,0.4c0.2,0.3,0.3,0.6,0.5,0.9c0.1,0.2,0.2,0.4,0.2,0.6     c0,0,0,0,0,0.1c0.1,0.2,0.2,0.5,0.2,0.7c0.1,0.3,0.1,0.5,0.2,0.8c0,0,0,0,0,0c0,0.2,0.1,0.3,0.1,0.5c0,0.2,0,0.3,0.1,0.5     C309.8,192.8,309.8,193.3,309.8,193.9z"></path>				<path id="XMLID_255_" fill="#F3BE65" d="M190.8,211.9c-0.6-0.5-1.2-0.9-1.5-1.4c-0.2-0.3-0.4-0.5-0.5-0.8     c-2.2-4,2.2-11.2,2.4-11.6c-0.1,0.4-2.8,7.2-0.1,10.7C191.9,209.8,191.6,210.9,190.8,211.9z"></path>				<path id="XMLID_28_" fill="#F3BE65" d="M191.8,196.2c0,0-1.1-5.2-0.7-7.9c0,0,2.3,0.4,3.9,3.2     C195,191.6,192.1,194.9,191.8,196.2z"></path>				<path id="XMLID_238_" fill="#F3BE65" d="M209.3,180.1c0,0-1.2,4.1-0.9,6.4c0,0,3.3-0.7,4.9-0.6     C213.3,185.9,211.4,181.8,209.3,180.1z"></path>				<g id="XMLID_69_">					<g id="XMLID_235_">						<g id="XMLID_145_">							<path id="XMLID_284_" fill="#894D16" d="M191,204c0,0,0-0.4,0.2-0.9c0.1-0.1,0.1-0.3,0.2-0.4c0.1-0.1,0.2-0.3,0.3-0.4        c0.1-0.1,0.2-0.3,0.4-0.4c0.1-0.1,0.3-0.2,0.4-0.3c0.2-0.1,0.3-0.2,0.5-0.3c0.2-0.1,0.4-0.1,0.5-0.1c0.2,0,0.3,0,0.5,0        c0.1,0,0.2,0,0.2,0c0.1,0,0.1,0,0.2,0c0.1,0,0.3,0.1,0.4,0.1c0.1,0,0.2,0.1,0.3,0.1c0.1,0.1,0.2,0.1,0.2,0.1s-0.1,0-0.2,0        c-0.1,0-0.2,0-0.3,0c-0.1,0-0.2,0-0.3,0c-0.1,0-0.2,0-0.4,0.1c-0.1,0-0.3,0.1-0.4,0.1c-0.1,0-0.1,0-0.2,0.1        c-0.1,0-0.1,0.1-0.2,0.1c-0.1,0.1-0.3,0.1-0.4,0.2c-0.1,0.1-0.2,0.2-0.4,0.3c-0.1,0.1-0.2,0.2-0.3,0.3        c-0.1,0.1-0.2,0.2-0.3,0.3c-0.1,0.1-0.2,0.2-0.3,0.3C191.3,203.7,191,204,191,204z"></path>						</g>						<g id="XMLID_146_">							<path id="XMLID_282_" fill="#894D16" d="M199.6,200.4c0,0,0.1-0.1,0.2-0.2c0.1-0.1,0.1-0.2,0.3-0.2c0.1-0.1,0.2-0.2,0.4-0.3        c0.1-0.1,0.3-0.2,0.5-0.2c0.2-0.1,0.4-0.1,0.6-0.2c0.2-0.1,0.4-0.1,0.7-0.1c0.2,0,0.5,0,0.7,0.1c0.2,0.1,0.5,0.1,0.7,0.2        c0.2,0.1,0.4,0.1,0.6,0.3c0.2,0.1,0.4,0.2,0.5,0.3c0.2,0.1,0.3,0.2,0.4,0.3c0.1,0.1,0.2,0.2,0.3,0.3c0.1,0.1,0.2,0.2,0.2,0.3        c0.1,0.1,0.2,0.2,0.2,0.2s-0.1,0-0.3-0.1c-0.2-0.1-0.4-0.2-0.7-0.3c-0.1-0.1-0.3-0.1-0.5-0.2c-0.2-0.1-0.3-0.1-0.5-0.2        c-0.2-0.1-0.4-0.1-0.6-0.2c-0.2-0.1-0.4-0.1-0.6-0.1c-0.2,0-0.4,0-0.6-0.1c-0.2,0-0.4,0-0.6,0c-0.2,0-0.4,0-0.5,0.1        c-0.2,0-0.3,0.1-0.5,0.1C200,200.2,199.6,200.4,199.6,200.4z"></path>						</g>						<g id="XMLID_158_">							<path id="XMLID_280_" fill="#894D16" d="M196.3,203.8c-0.3,0.2-0.3,0.6-0.1,0.9c0.4,0.6,1.3,1.4,1.9,1.3        c0.6-0.2,0.8-2,0.6-2.5C198.5,203.1,197.3,203,196.3,203.8z"></path>						</g>						<g id="XMLID_161_">															<rect id="XMLID_236_" x="197.2" y="206.5" transform="matrix(0.3944 0.919 -0.919 0.3944 310.1493 -57.1551)" fill="#894D16" width="2.5" height="0.4"></rect>						</g>						<g id="XMLID_139_">							<path id="XMLID_276_" fill="#894D16" d="M196.2,207.1c0,0,0.3,0.3,0.8,0.6c0.3,0.1,0.6,0.3,1,0.4c0.2,0,0.4,0.1,0.6,0        c0,0,0,0,0.1,0l0.1,0c0,0,0.1,0,0.1,0c0.1-0.1,0.2-0.1,0.3-0.2c0.2-0.1,0.3-0.3,0.4-0.4c0.1-0.2,0.2-0.3,0.3-0.5        c0.2-0.3,0.4-0.6,0.5-0.9c0.2-0.5,0.3-0.9,0.3-0.9s-0.1,0.1-0.1,0.2c-0.1,0.1-0.2,0.3-0.4,0.6c-0.2,0.2-0.3,0.5-0.6,0.8        c-0.1,0.1-0.2,0.3-0.3,0.4c-0.1,0.1-0.2,0.3-0.4,0.4c-0.1,0.1-0.1,0.1-0.2,0.1c0,0-0.1,0-0.1,0l-0.1,0c0,0,0,0,0,0        c-0.2,0-0.3,0-0.5,0c-0.3,0-0.7-0.1-0.9-0.2c-0.3-0.1-0.5-0.2-0.6-0.3C196.3,207.1,196.2,207.1,196.2,207.1z"></path>						</g>					</g>				</g>			</g>			<path id="XMLID_274_" opacity="0.58" fill="#F3BE65" d="M273.9,160.1l-1.8,51.4c0,0-9.9,5.6-11.5,4.9c-1.6-0.7-6.2-1.6-6.2-1.6    s23.6-50.2-7.7-51.5c0.7-0.3,1.4-0.7,2.1-1c1.3-0.6,2.6-1.1,3.9-1.6c1.8-0.7,3.5-1.3,5.3-1.9c1.9-0.6,3.9-1.1,5.9-1.5    c0,0,0,0,0,0c4.9-0.7,8.7-1.1,9.4-1.1L273.9,160.1z"></path>			<path id="XMLID_272_" fill="#AFE1F5" d="M306.1,152.5c-12.7-0.1-25.5-0.6-38.2,0.2c0.6,5.7,0.9,12.2,0.9,19.6    c0,21.5-2.8,36.4-8.1,44c0,0,0.8,0.3,2.1,1.1c0.2,0.1,0.8,0.7,0.8,0.7s0.7,1.2,0.6,2.4c0.9,0.4,1.6,4.4,1.6,4.4s3.4-0.5,3.9-0.4    c4.6-0.3,9.6-0.2,13.7-0.3c4.8-0.2,8.7-0.3,13.1-0.9c6.4-12.5,10.9-31.2,10.9-51C307.4,165.3,307,158.6,306.1,152.5z"></path>			<g id="XMLID_237_">				<g id="XMLID_261_">					<path id="XMLID_262_" fill="#894D16" d="M189.6,175.4l0.5,1.2l-1.4,4.5l3-1.3l0.7,1.5l-5.4,2.4l-0.5-1.2l1.4-4.5l-2.8,1.2      l-0.7-1.5L189.6,175.4z"></path>				</g>				<g id="XMLID_258_">					<path id="XMLID_266_" fill="#894D16" d="M197.8,160.6l0.1,1.3l-2.7,3.9l3.2-0.3l0.2,1.6l-5.9,0.6l-0.1-1.3l2.7-3.9l-3,0.3      l-0.2-1.6L197.8,160.6z"></path>				</g>				<g id="XMLID_279_" opacity="0.58">					<path id="XMLID_281_" fill="#894D16" d="M187.8,146.9l0.1,1l-2.1,2.9l2.5-0.3l0.1,1.2l-4.5,0.5l-0.1-1l2.1-2.9l-2.3,0.2      l-0.1-1.2L187.8,146.9z"></path>				</g>				<g id="XMLID_288_" opacity="0.39">					<path id="XMLID_290_" fill="#894D16" d="M199.4,133.7l-0.2,0.7L197,136l1.8,0.4l-0.2,0.9l-3.3-0.8l0.2-0.7l2.2-1.5l-1.7-0.4      l0.2-0.9L199.4,133.7z"></path>				</g>				<g id="XMLID_292_" opacity="0.15">					<path id="XMLID_297_" fill="#894D16" d="M186.9,126.8l0.2,0.7l-1,2.5l1.7-0.6l0.3,0.9l-3.2,1.1l-0.2-0.7l1-2.5l-1.6,0.5      l-0.3-0.9L186.9,126.8z"></path>				</g>			</g>		</g>	</g></g><g id="DESIGNED_BY_FREEPIK"></g></svg>